<svg width="335" height="335" viewBox="0 0 335 335" fill="none" xmlns="http://www.w3.org/2000/svg">
 <g transform="translate(150,-80)" width="18" height="100" viewBox="0 0 18 100" fill="none" xmlns="http://www.w3.org/2000/svg">
<line x1="8.8125" y1="99.75" x2="8.8125" stroke="#DDDDDD" stroke-width="16.875"/>
</g>
<circle cx="167.375" cy="167.375" r="166.875" fill="#286262"/>
 <g transform="translate(30, 90)" width="267" height="146" viewBox="0 0 267 146" fill="none" xmlns="http://www.w3.org/2000/svg">
<path d="M2.84202 143C-8.51025 81.1932 55.8193 9.29545 58.342 4.25C77.5152 24.4318 107.535 29.4773 120.148 29.4773L127.716 4.25L132.762 11.8182L141.591 10.5568L145.376 4.25L151.682 29.4773C158.746 37.55 194.148 16.0227 210.966 4.25C259.403 54.7045 267.307 117.773 265.205 143C245.023 121.809 216.432 127.443 204.66 132.909C181.451 108.691 147.898 126.182 134.023 137.955C106.778 111.718 75.5801 123.659 63.3869 132.909C39.1687 117.773 12.9327 133.33 2.84202 143Z" fill="#242424" stroke="black" stroke-width="2.52273"/>
</g>

</svg>



