<svg width="335" height="335" viewBox="0 0 335 335" fill="none" xmlns="http://www.w3.org/2000/svg">
 <g transform="translate(150,-70)" width="18" height="80" viewBox="0 0 18 80" fill="none" xmlns="http://www.w3.org/2000/svg">
<line x1="8.8125" y1="79.75" x2="8.8125" stroke="#DDDDDD" stroke-width="16.875"/>
</g>
<circle cx="167.375" cy="167.375" r="166.875" fill="#286262"/>
 <g transform="translate(10, 95)"  width="320" height="120" viewBox="0 0 320 120" fill="none" xmlns="http://www.w3.org/2000/svg">
<path d="M70.0747 2.25C40.112 6.79545 14.5405 22.3258 5.5 29.5227C56.1266 34.0682 73.0882 66.2652 75.2407 81.7955C119.668 69.0682 152.3 98.4621 163.062 114.75C172.361 77.4773 224.623 77.25 249.592 81.7955C250.626 46.3409 294.795 33.6894 316.75 31.7955C308.484 16.3409 271.978 5.65909 254.758 2.25C234.094 26.7955 198.794 32.1742 183.726 31.7955L177.269 14.75L170.811 31.7955H151.439L146.273 14.75L139.815 31.7955C95.388 30.8864 74.8102 11.7197 70.0747 2.25Z" fill="#242424" stroke="black" stroke-width="3.75"/>
</g>

</svg>


