<svg width="335" height="335" viewBox="0 0 335 335" fill="none" xmlns="http://www.w3.org/2000/svg">
<circle cx="167.375" cy="167.375" r="166.875" fill="#286262"/>
  <g transform="translate(5, 90)" width="323" height="128" viewBox="0 0 323 128" fill="none" xmlns="http://www.w3.org/2000/svg">
<path d="M158.436 12.9092L152.307 5.55515C156.23 32.0298 138.416 36.1972 129.019 34.9716C91.7588 27.1273 107.774 9.64089 120.44 1.87824C60.6265 -1.06329 17.8911 40.6915 4 61.9366C52.0467 38.4035 71.4125 70.1078 75.0895 88.9016C116.272 58.5047 150.265 99.9327 162.113 124.446C190.549 67.5747 231.977 77.8705 249.136 90.1273C256.981 46.0028 298.981 52.1311 319 60.7108C280.759 7.76137 226.665 -0.573255 203.786 1.87811C221.436 7.76138 220.946 18.2205 218.494 22.7147C201.825 42.3256 182.949 31.703 175.595 23.9404L173.144 5.55515L167.016 12.9092H158.436Z" fill="#242424" stroke="black" stroke-width="2.45136"/>
</g>
 <g transform="translate(150,340)" width="18" height="80" viewBox="0 0 18 80" fill="none" xmlns="http://www.w3.org/2000/svg">
<line x1="8.8125" y1="79.75" x2="8.8125" stroke="#DDDDDD" stroke-width="16.875"/>
</g>
</svg>



