<svg width="335" height="335" viewBox="0 0 335 335" fill="none" xmlns="http://www.w3.org/2000/svg">
<g transform="translate(150,-70)" width="18" height="80" viewBox="0 0 18 80" fill="none" xmlns="http://www.w3.org/2000/svg">
<line x1="8.8125" y1="79.75" x2="8.8125" stroke="#55bcbf" stroke-width="16.875"/>
</g>
<circle cx="167.375" cy="167.375" r="166.875" fill="#286262"/>
 <g transform="translate(10, 90)" width="328" height="129" viewBox="0 0 328 129" fill="none" xmlns="http://www.w3.org/2000/svg">
<path d="M77.9652 16.2066L4.5 83.446L64.2683 70.9942L89.1718 103.369L120.301 88.4267C129.017 75.9749 162.637 123.292 162.637 125.782C162.637 127.774 166.788 126.612 168.863 125.782L197.502 90.917C199.494 80.9556 229.876 93.4073 244.819 100.878L264.741 73.4846C262.749 67.5077 305.417 75.9749 327 80.9556L254.78 18.6969C241.83 32.6429 202.898 40.2799 185.05 42.3552L176.334 5L168.863 27.4131H162.637L153.921 5L145.205 42.3552C122.293 46.3398 90.832 26.583 77.9652 16.2066Z" fill="#242424" stroke="black" stroke-width="2.49035"/>
</g>
 
</svg>


