<svg width="335" height="335" viewBox="0 0 335 335" fill="none" xmlns="http://www.w3.org/2000/svg">
<circle cx="167.375" cy="167.375" r="166.875" fill="#286262"/>
  <g transform="translate(30, 70)"   width="278" height="241" viewBox="0 0 278 241" fill="none" xmlns="http://www.w3.org/2000/svg">
<path d="M80.0628 7.80057C71.6452 19.5852 63.5643 43.4912 98.5816 44.8381C109.244 45.9604 129.221 39.1141 123.834 2.75H125.517L133.935 14.5347H144.036L150.77 2.75C149.648 18.4629 154.474 48.8785 182.757 44.8381C211.04 40.7976 205.765 15.0958 199.592 2.75C247.292 15.657 321.816 63.3568 238.313 150.9C224.284 132.381 190.501 107.802 167.605 157.634C146.85 202.808 142.972 228.337 143.683 237.731C143.809 238.546 143.926 239.345 144.036 240.127C143.879 239.497 143.757 238.7 143.683 237.731C138.051 201.089 116.806 131.649 73.328 129.014C63.2268 127.892 43.0246 130.698 43.0246 150.9C18.7818 145.513 5.98708 118.352 2.62003 105.445C-2.76724 23.289 52.0038 6.11705 80.0628 7.80057Z" fill="#242424" stroke="black" stroke-width="3.36705"/>
</g>
 <g transform="translate(150,340)" width="18" height="80" viewBox="0 0 18 80" fill="none" xmlns="http://www.w3.org/2000/svg">
<line x1="8.8125" y1="79.75" x2="8.8125" stroke="#DDDDDD" stroke-width="16.875"/>
</g>
</svg>





