<svg width="128" height="128" viewBox="0 0 128 128" fill="none" xmlns="http://www.w3.org/2000/svg">
<path d="M112.137 46.4979H92.4047C92.1318 43.5182 90.7591 40.7469 88.5541 38.7242C86.3491 36.7016 83.4698 35.5726 80.4777 35.5574C77.4856 35.5422 74.595 36.6418 72.3695 38.6419C70.144 40.642 68.7432 43.3992 68.44 46.376C68.4359 46.4166 68.432 46.4572 68.4283 46.4979H48.6283C48.349 43.5325 46.9836 40.775 44.7946 38.7553C42.6056 36.7356 39.7473 35.5961 36.7691 35.5559C35.7474 35.5252 34.7267 35.6435 33.7391 35.907C32.7822 36.1449 31.8584 36.5002 30.9886 36.9647C29.2716 37.8841 27.8006 39.2025 26.6994 40.8089C25.5433 42.4998 24.8383 44.4581 24.6514 46.4979H4.9207C5.09112 41.0537 6.67913 35.7482 9.5278 31.1057C12.3721 26.4572 16.3537 22.61 21.097 19.927C25.8424 17.2581 31.1949 15.8554 36.6394 15.854H36.7313C44.5073 15.8714 52.0052 18.7485 57.7968 23.9374L58.5279 24.5919L59.259 23.9374C63.7556 19.9132 69.3063 17.2545 75.2603 16.2731C81.2143 15.2916 87.3247 16.0281 92.875 18.3961C98.4253 20.7642 103.185 24.6656 106.597 29.6429C110.009 34.6202 111.931 40.4671 112.137 46.4979Z" fill="#F55254"/>
<path d="M24.6444 15.854L24.2373 16.0116C19.8993 17.7276 15.9593 20.3148 12.6606 23.6134C9.36193 26.9121 6.77464 30.8521 5.0586 35.19L4.901 35.5972V15.854H24.6444Z" fill="#F55254"/>
<path d="M123.099 80.4251C123.089 88.6504 119.891 96.5515 114.176 102.467C108.461 108.383 100.675 111.852 92.4551 112.146V92.4135C94.5505 92.2216 96.5591 91.484 98.2806 90.274C100.002 89.064 101.376 87.424 102.267 85.5174C103.157 83.6108 103.532 81.5041 103.354 79.4074C103.177 77.3108 102.453 75.2972 101.255 73.5675C101.169 73.4448 101.081 73.3237 100.992 73.2041L100.335 72.3286L99.4594 72.9852C94.8176 76.4631 89.3116 78.6028 83.5394 79.172C77.7672 79.7411 71.9494 78.718 66.7176 76.2137C61.4859 73.7094 57.0403 69.8197 53.8635 64.9668C50.6867 60.1139 48.9001 54.4835 48.6978 48.6868H68.4259C68.7009 51.6765 70.0829 54.4556 72.3009 56.479C74.519 58.5024 77.413 59.6241 80.4153 59.6241C83.4176 59.6241 86.3116 58.5024 88.5297 56.479C90.7477 54.4556 92.1297 51.6765 92.4047 48.6868H112.137C112.065 50.7939 111.784 52.8886 111.299 54.9403L111.144 55.5992L111.664 56.0326C115.246 59.0077 118.128 62.7361 120.105 66.9523C122.081 71.1685 123.104 75.7687 123.099 80.4251V80.4251Z" fill="#F55254"/>
</svg>
